{"accessors":[{"bufferView":0,"byteOffset":0,"componentType":5126,"count":1950,"max":[0.5,1,0.5],"min":[-0.5,-1,-0.5],"normalized":false,"type":"VEC3"},{"bufferView":1,"byteOffset":0,"componentType":5126,"count":1950,"max":[1,0,1,1],"min":[-1,-0.000022,-1,1],"normalized":false,"type":"VEC4"},{"bufferView":2,"byteOffset":0,"componentType":5126,"count":1950,"max":[1,1,1],"min":[-1,-1,-1],"normalized":false,"type":"VEC3"},{"bufferView":3,"byteOffset":0,"componentType":5126,"count":1950,"max":[1,1],"min":[0,0],"normalized":false,"type":"VEC2"},{"bufferView":4,"byteOffset":0,"componentType":5125,"count":10368,"max":[1949],"min":[0],"normalized":false,"type":"SCALAR"},{"bufferView":5,"byteOffset":0,"componentType":5126,"count":360,"max":[0.5,0.5,0.5],"min":[-0.5,-0.5,-0.5],"normalized":false,"type":"VEC3"},{"bufferView":6,"byteOffset":0,"componentType":5126,"count":360,"max":[1,0.10932,1,1],"min":[-1,-0.15195,-1,1],"normalized":false,"type":"VEC4"},{"bufferView":7,"byteOffset":0,"componentType":5126,"count":360,"max":[1,0.963619,1],"min":[-1,-0.963621,-1],"normalized":false,"type":"VEC3"},{"bufferView":8,"byteOffset":0,"componentType":5126,"count":360,"max":[1,1],"min":[0,0],"normalized":false,"type":"VEC2"},{"bufferView":9,"byteOffset":0,"componentType":5125,"count":360,"max":[359],"min":[0],"normalized":false,"type":"SCALAR"},{"bufferView":10,"byteOffset":0,"componentType":5126,"count":360,"max":[0.5,0.5,0.5],"min":[-0.5,-0.5,-0.5],"normalized":false,"type":"VEC3"},{"bufferView":11,"byteOffset":0,"componentType":5126,"count":360,"max":[1,0.10932,1,1],"min":[-1,-0.15195,-1,1],"normalized":false,"type":"VEC4"},{"bufferView":12,"byteOffset":0,"componentType":5126,"count":360,"max":[1,0.963619,1],"min":[-1,-0.963621,-1],"normalized":false,"type":"VEC3"},{"bufferView":13,"byteOffset":0,"componentType":5126,"count":360,"max":[1,1],"min":[0,0],"normalized":false,"type":"VEC2"},{"bufferView":14,"byteOffset":0,"componentType":5125,"count":360,"max":[359],"min":[0],"normalized":false,"type":"SCALAR"},{"bufferView":15,"byteOffset":0,"componentType":5126,"count":288,"max":[1,0.216506,1],"min":[-1,-0.216506,-1],"normalized":false,"type":"VEC3"},{"bufferView":16,"byteOffset":0,"componentType":5126,"count":288,"max":[1,0.222269,1,1],"min":[-1,-0.222244,-1,-1],"normalized":false,"type":"VEC4"},{"bufferView":17,"byteOffset":0,"componentType":5126,"count":288,"max":[1,0.872689,1],"min":[-1,-0.872711,-1],"normalized":false,"type":"VEC3"},{"bufferView":18,"byteOffset":0,"componentType":5126,"count":288,"max":[0.875,0.833333],"min":[0,0],"normalized":false,"type":"VEC2"},{"bufferView":19,"byteOffset":0,"componentType":5125,"count":288,"max":[287],"min":[0],"normalized":false,"type":"SCALAR"}],"asset":{"generator":"Godot Engine v4.2.beta3.mono.official@e8d57afaeccf0d9f9726746f49936eb93aa0039b","version":"2.0"},"bufferViews":[{"buffer":0,"byteLength":23400,"byteOffset":0},{"buffer":0,"byteLength":31200,"byteOffset":23400},{"buffer":0,"byteLength":23400,"byteOffset":54600},{"buffer":0,"byteLength":15600,"byteOffset":78000},{"buffer":0,"byteLength":41472,"byteOffset":93600},{"buffer":0,"byteLength":4320,"byteOffset":135072},{"buffer":0,"byteLength":5760,"byteOffset":139392},{"buffer":0,"byteLength":4320,"byteOffset":145152},{"buffer":0,"byteLength":2880,"byteOffset":149472},{"buffer":0,"byteLength":1440,"byteOffset":152352},{"buffer":0,"byteLength":4320,"byteOffset":153792},{"buffer":0,"byteLength":5760,"byteOffset":158112},{"buffer":0,"byteLength":4320,"byteOffset":163872},{"buffer":0,"byteLength":2880,"byteOffset":168192},{"buffer":0,"byteLength":1440,"byteOffset":171072},{"buffer":0,"byteLength":3456,"byteOffset":172512},{"buffer":0,"byteLength":4608,"byteOffset":175968},{"buffer":0,"byteLength":3456,"byteOffset":180576},{"buffer":0,"byteLength":2304,"byteOffset":184032},{"buffer":0,"byteLength":1152,"byteOffset":186336}],"buffers":[{"byteLength":187488,"uri":"player0.bin"}],"extensions":{"OMI_collider":{"colliders":[{"height":2,"radius":0.5,"type":"cylinder"}]}},"extensionsUsed":["GODOT_single_root","OMI_collider","OMI_physics_body"],"materials":[{"extensions":{},"pbrMetallicRoughness":{"baseColorFactor":[0.99999988079071,0.99999988079071,0.99999988079071,1],"metallicFactor":0,"roughnessFactor":1}},{"extensions":{},"pbrMetallicRoughness":{"baseColorFactor":[0,0,0,1],"metallicFactor":0,"roughnessFactor":1}}],"meshes":[{"extras":{"targetNames":[]},"primitives":[{"attributes":{"NORMAL":2,"POSITION":0,"TANGENT":1,"TEXCOORD_0":3},"indices":4,"material":0,"mode":4}]},{"extras":{"targetNames":[]},"primitives":[{"attributes":{"NORMAL":7,"POSITION":5,"TANGENT":6,"TEXCOORD_0":8},"indices":9,"material":1,"mode":4}]},{"extras":{"targetNames":[]},"primitives":[{"attributes":{"NORMAL":12,"POSITION":10,"TANGENT":11,"TEXCOORD_0":13},"indices":14,"material":1,"mode":4}]},{"extras":{"targetNames":[]},"primitives":[{"attributes":{"NORMAL":17,"POSITION":15,"TANGENT":16,"TEXCOORD_0":18},"indices":19,"material":1,"mode":4}]}],"nodes":[{"children":[1,8,9],"extensions":{"OMI_physics_body":{"type":"character"}},"name":"Player"},{"children":[2,6,7],"extensions":{},"name":"Smoothing"},{"children":[3,4,5],"extensions":{},"mesh":0,"name":"MeshInstance3D"},{"extensions":{},"mesh":1,"name":"CSGSphere3D2","scale":[0.100000001490116,0.100000001490116,0.100000001490116],"translation":[-0.2572900056839,0.427933990955353,-0.38534200191498]},{"extensions":{},"mesh":2,"name":"CSGSphere3D23","scale":[0.100000001490116,0.100000001490116,0.100000001490116],"translation":[0.257681995630264,0.46110001206398,-0.41441199183464]},{"extensions":{},"mesh":3,"name":"CSGTorus3D2","rotation":[-0.37297597527504,-0.16071252524853,0.0657656043767929,0.911446809768677],"scale":[0.300000190734863,0.299999594688416,0.299999833106995],"translation":[-0.00710968999192,0.395927995443344,-0.32451999187469]},{"extensions":{},"name":"NameLabel","translation":[0,1.29999995231628,0]},{"extensions":{},"name":"IdLabel","translation":[0,1.12999999523163,0]},{"extensions":{"OMI_collider":{"collider":0}},"name":"CollisionShape3D"},{"extensions":{},"name":"MultiplayerSynchronizer"}],"scene":0,"scenes":[{"nodes":[0]}]}